HIERARCHY
ROOT Hips
{
	OFFSET 55.310501 45.591206 43.872097
	CHANNELS 6 Xposition Yposition Zposition Zrotation Xrotation Yrotation
	JOINT Chest
	{
		OFFSET -0.153500 1.163101 7.852402
		CHANNELS 6 Xposition Yposition Zposition Zrotation Xrotation Yrotation
		JOINT Chest2
		{
			OFFSET 0.000000 0.000000 3.343300
			CHANNELS 6 Xposition Yposition Zposition Zrotation Xrotation Yrotation
			JOINT Neck
			{
				OFFSET 0.000000 0.000000 7.785500
				CHANNELS 6 Xposition Yposition Zposition Zrotation Xrotation Yrotation
				JOINT Head
				{
					OFFSET 0.000000 0.000000 2.173901
					CHANNELS 6 Xposition Yposition Zposition Zrotation Xrotation Yrotation
					End Site
					{
						OFFSET 0.000000 0.000000 10.528198
					}
				}
			}
			JOINT LeftCollar
			{
				OFFSET 2.676300 -1.652401 4.938301
				CHANNELS 6 Xposition Yposition Zposition Zrotation Xrotation Yrotation
				JOINT LeftShoulder
				{
					OFFSET 4.299000 0.000000 0.000000
					CHANNELS 6 Xposition Yposition Zposition Zrotation Xrotation Yrotation
					JOINT LeftElbow
					{
						OFFSET 0.000000 0.000000 -10.245102
						CHANNELS 6 Xposition Yposition Zposition Zrotation Xrotation Yrotation
						JOINT LeftWrist
						{
							OFFSET 0.000000 0.000000 -12.703300
							CHANNELS 6 Xposition Yposition Zposition Zrotation Xrotation Yrotation
							End Site
							{
								OFFSET 0.000000 0.000000 -2.173901
							}
						}
					}
				}
			}
			JOINT RightCollar
			{
				OFFSET -2.534599 -1.686401 5.195000
				CHANNELS 6 Xposition Yposition Zposition Zrotation Xrotation Yrotation
				JOINT RightShoulder
				{
					OFFSET -4.144100 0.000000 0.000000
					CHANNELS 6 Xposition Yposition Zposition Zrotation Xrotation Yrotation
					JOINT RightElbow
					{
						OFFSET 0.000000 0.000000 -10.116501
						CHANNELS 6 Xposition Yposition Zposition Zrotation Xrotation Yrotation
						JOINT RightWrist
						{
							OFFSET 0.000000 0.000000 -12.937801
							CHANNELS 6 Xposition Yposition Zposition Zrotation Xrotation Yrotation
							End Site
							{
								OFFSET 0.000000 0.000000 -2.173901
							}
						}
					}
				}
			}
		}
	}
	JOINT LeftHip
	{
		OFFSET 2.175598 0.064499 -2.662899
		CHANNELS 6 Xposition Yposition Zposition Zrotation Xrotation Yrotation
		JOINT LeftKnee
		{
			OFFSET 0.000000 -0.000004 -18.585800
			CHANNELS 6 Xposition Yposition Zposition Zrotation Xrotation Yrotation
			JOINT LeftAnkle
			{
				OFFSET 0.000000 0.000000 -18.979500
				CHANNELS 6 Xposition Yposition Zposition Zrotation Xrotation Yrotation
				End Site
				{
					OFFSET 0.000000 -9.264000 0.000000
				}
			}
		}
	}
	JOINT RightHip
	{
		OFFSET -2.092400 -0.058102 -2.581200
		CHANNELS 6 Xposition Yposition Zposition Zrotation Xrotation Yrotation
		JOINT RightKnee
		{
			OFFSET 0.000000 -0.000004 -18.665001
			CHANNELS 6 Xposition Yposition Zposition Zrotation Xrotation Yrotation
			JOINT RightAnkle
			{
				OFFSET 0.000000 0.000000 -18.566601
				CHANNELS 6 Xposition Yposition Zposition Zrotation Xrotation Yrotation
				End Site
				{
					OFFSET 0.000000 -8.497601 0.000000
				}
			}
		}
	}
}
MOTION
Frames: 9
Frame Time: 0.041667
67.255707 50.821304 39.110394 371.192860 -4.859412 -18.302689 -0.153494 1.163098 7.852399 20.061809 14.115980 0.904886 0.000006 -0.000004 3.343302 -6.342777 -2.640972 -0.145710 -0.000010 -0.000004 7.785501 -47.351424 0.644208 25.828533 -0.000005 0.000007 2.173903 -1.544843 4.463319 -5.240809 2.676289 -1.652404 4.938302 -4.677234 4.341810 7.772671 4.299009 0.000002 -0.000003 -39.200648 11.458587 -63.874399 -0.000004 0.000006 -10.245100 185.090818 248.931927 206.841569 -0.000005 0.000006 -12.703288 55.175358 3.031694 28.642554 -2.534603 -1.686402 5.194994 17.488240 8.595539 -1.171056 -4.144096 -0.000010 -0.000006 55.229285 -23.135096 57.567655 0.000006 0.000017 -10.116503 -62.305464 -24.288264 -70.837381 -0.000004 0.000007 -12.937808 125.001669 191.647718 87.585462 2.175599 0.064492 -2.662902 -336.732533 -13.126129 22.597693 0.000003 -0.000006 -18.585796 133.468563 -236.912215 -140.396929 -0.000006 0.000010 -18.979500 370.636226 -8.108394 -6.496654 -2.092392 -0.058107 -2.581197 -173.898474 -11.476415 -67.938444 0.000000 -0.000008 -18.665003 -350.190137 4.971278 17.301153 0.000007 0.000001 -18.566607 519.107546 62.648838 -61.945089
67.246506 50.826302 39.111992 371.160539 -4.904012 -18.314915 -0.153513 1.163101 7.852402 20.072290 14.140612 0.883947 0.000002 0.000003 3.343305 -6.328165 -2.660422 -0.144173 -0.000002 -0.000010 7.785508 -47.339488 0.638432 25.808539 -0.000003 -0.000004 2.173903 -1.631309 4.479062 -5.208850 2.676288 -1.652409 4.938310 -4.741562 4.404571 7.776452 4.298996 0.000004 -0.000007 -39.022124 11.250584 -63.931862 -0.000005 0.000002 -10.245105 185.292623 248.834310 207.129680 -0.000008 0.000010 -12.703302 55.140489 3.286152 28.833224 -2.534606 -1.686410 5.195006 17.597439 8.699996 -1.287004 -4.144098 -0.000009 -0.000004 55.347045 -23.013819 57.777506 0.000006 0.000013 -10.116496 -62.252953 -24.204199 -70.693735 0.000012 -0.000006 -12.937798 125.050833 191.545320 87.494122 2.175590 0.064490 -2.662902 -336.831189 -13.104402 22.571321 0.000001 -0.000009 -18.585794 133.692115 -236.908062 -140.547944 -0.000003 0.000001 -18.979496 370.631691 -7.997549 -6.882851 -2.092411 -0.058101 -2.581192 -173.866946 -11.545539 -67.931217 0.000006 -0.000012 -18.665009 -350.050200 5.039851 17.326650 0.000009 0.000005 -18.566612 518.933786 62.619782 -61.812228
67.238098 50.830204 39.113796 371.146906 -4.924180 -18.320347 -0.153503 1.163104 7.852406 20.088394 14.095960 0.856847 -0.000006 -0.000002 3.343298 -6.333667 -2.652225 -0.143822 -0.000008 0.000011 7.785508 -47.286653 0.668376 25.778727 0.000002 0.000007 2.173910 -1.753101 4.480703 -5.160163 2.676296 -1.652395 4.938302 -4.834037 4.469728 7.787211 4.299010 -0.000002 -0.000002 -38.824216 11.065749 -63.965329 0.000000 0.000004 -10.245115 185.786022 248.690138 207.640114 -0.000005 -0.000012 -12.703292 55.040567 3.612210 29.038443 -2.534601 -1.686394 5.195002 17.751450 8.826250 -1.322453 -4.144106 -0.000005 -0.000006 55.396953 -22.975997 57.921247 0.000006 0.000011 -10.116503 -62.162282 -24.118260 -70.527796 0.000008 -0.000002 -12.937809 125.083699 191.489367 87.346426 2.175582 0.064495 -2.662896 -336.931948 -13.103466 22.545584 -0.000006 -0.000005 -18.585804 133.938302 -236.909592 -140.720789 -0.000003 0.000006 -18.979502 370.609042 -7.875422 -7.318973 -2.092412 -0.058105 -2.581187 -173.901493 -11.510152 -67.937761 0.000001 -0.000007 -18.665009 -349.660360 5.243120 17.350982 0.000006 0.000009 -18.566608 518.526542 62.731524 -61.474933
67.231209 50.832703 39.115501 371.138628 -4.932299 -18.316604 -0.153504 1.163104 7.852397 20.105444 14.007286 0.820432 0.000011 0.000002 3.343297 -6.359551 -2.626617 -0.144888 -0.000008 -0.000015 7.785499 -47.209076 0.726407 25.759954 -0.000006 0.000008 2.173913 -1.867049 4.468051 -5.116028 2.676287 -1.652411 4.938301 -4.915766 4.509519 7.806637 4.298995 0.000013 -0.000006 -38.642512 10.975200 -63.952277 0.000001 -0.000008 -10.245105 186.149866 248.580910 208.006349 -0.000002 0.000005 -12.703297 54.986967 3.830595 29.138420 -2.534619 -1.686411 5.195004 17.926011 8.947302 -1.268202 -4.144100 -0.000005 0.000000 55.397506 -23.022319 57.972221 0.000006 0.000015 -10.116513 -62.026348 -23.996041 -70.348674 0.000004 -0.000001 -12.937806 125.090735 191.510349 87.114350 2.175596 0.064496 -2.662898 -337.021997 -13.107810 22.512240 -0.000008 -0.000006 -18.585796 134.174982 -236.911395 -140.891325 0.000001 0.000002 -18.979502 370.560794 -7.791026 -7.628987 -2.092401 -0.058092 -2.581196 -173.994425 -11.385368 -67.954092 0.000001 -0.000014 -18.665009 -349.235058 5.467940 17.371539 0.000005 0.000006 -18.566610 518.167875 62.849140 -61.136695
67.225510 50.834206 39.117290 371.138027 -4.919652 -18.300170 -0.153503 1.163112 7.852405 20.165662 13.856838 0.756186 0.000002 0.000002 3.343294 -6.425627 -2.581294 -0.147655 0.000004 -0.000006 7.785506 -47.124631 0.796207 25.794964 -0.000006 0.000010 2.173902 -1.953792 4.441211 -5.087123 2.676302 -1.652405 4.938301 -4.985835 4.535402 7.851366 4.298991 0.000017 -0.000005 -38.480767 10.953579 -63.920544 -0.000017 0.000008 -10.245109 186.906255 248.415510 208.660968 0.000002 0.000011 -12.703288 54.820912 4.189100 29.310603 -2.534593 -1.686406 5.194999 18.103712 9.055180 -1.114254 -4.144108 0.000000 0.000002 55.324754 -23.165481 57.914465 0.000008 -0.000000 -10.116504 -61.853715 -23.813456 -70.154936 0.000004 0.000007 -12.937796 125.173243 191.571766 86.878019 2.175592 0.064498 -2.662899 -337.090681 -13.127254 22.475465 -0.000007 -0.000003 -18.585796 134.354097 -236.905712 -141.027110 -0.000010 0.000001 -18.979500 370.517354 -7.727913 -7.890106 -2.092399 -0.058102 -2.581199 -174.125496 -11.188851 -67.970156 -0.000003 -0.000006 -18.665005 -348.818854 5.694551 17.382823 0.000002 0.000003 -18.566605 517.892264 62.969181 -60.821844
67.220406 50.835106 39.119198 371.145977 -4.903183 -18.295609 -0.153503 1.163098 7.852409 20.251103 13.695092 0.699227 0.000011 0.000001 3.343301 -6.518974 -2.522334 -0.152186 -0.000008 0.000015 7.785498 -47.049130 0.868750 25.873136 0.000005 0.000008 2.173907 -2.015833 4.403582 -5.081726 2.676303 -1.652386 4.938295 -5.032041 4.513644 7.906190 4.298999 0.000002 -0.000007 -38.357936 11.011085 -63.863307 -0.000000 0.000006 -10.245099 187.361173 248.306555 209.054195 -0.000009 -0.000009 -12.703300 54.726559 4.412795 29.429301 -2.534603 -1.686392 5.194993 18.209687 9.066539 -0.877965 -4.144108 -0.000006 -0.000002 55.240357 -23.348795 57.713596 0.000015 0.000003 -10.116504 -61.658863 -23.588770 -69.940113 0.000003 0.000001 -12.937799 125.333493 191.649849 86.656133 2.175594 0.064487 -2.662889 -337.124504 -13.138996 22.456214 -0.000001 -0.000002 -18.585800 134.438354 -236.892981 -141.105766 0.000001 -0.000001 -18.979494 370.486591 -7.691867 -8.078177 -2.092403 -0.058106 -2.581189 -174.289093 -10.957340 -68.001206 0.000005 0.000002 -18.665007 -348.376094 5.938867 17.382384 0.000001 0.000001 -18.566608 517.617526 63.128843 -60.477002
67.215401 50.835499 39.121296 371.160157 -4.887109 -18.301287 -0.153497 1.163099 7.852408 20.356931 13.569235 0.650454 -0.000007 0.000002 3.343307 -6.631405 -2.479688 -0.157646 -0.000019 -0.000008 7.785507 -46.986258 0.924180 25.950102 0.000000 0.000009 2.173908 -2.033594 4.371777 -5.086960 2.676282 -1.652411 4.938305 -4.979967 4.426995 7.978752 4.298999 0.000002 -0.000009 -38.345614 11.162085 -63.794903 -0.000008 0.000004 -10.245113 187.409900 248.263170 209.088811 -0.000004 0.000001 -12.703295 54.741371 4.515894 29.536917 -2.534610 -1.686403 5.194998 18.195556 8.957919 -0.617519 -4.144100 -0.000006 -0.000004 55.187198 -23.519096 57.397324 0.000006 0.000015 -10.116498 -61.439382 -23.350648 -69.715427 0.000000 0.000004 -12.937805 125.527348 191.736565 86.432834 2.175601 0.064491 -2.662900 -337.123439 -13.143254 22.451607 0.000009 -0.000010 -18.585800 134.430731 -236.880031 -141.126830 -0.000008 0.000000 -18.979494 370.466319 -7.687089 -8.176770 -2.092393 -0.058101 -2.581198 -174.463945 -10.720914 -68.037277 0.000004 -0.000003 -18.665005 -348.090537 6.099883 17.369227 0.000001 0.000008 -18.566605 517.573485 63.218926 -60.301616
67.209808 50.835503 39.123695 371.176467 -4.868789 -18.305143 -0.153514 1.163102 7.852409 20.400489 13.459377 0.640347 0.000005 0.000003 3.343300 -6.711250 -2.462147 -0.161977 -0.000006 0.000006 7.785503 -46.931145 0.984711 26.016221 0.000000 0.000005 2.173911 -2.003957 4.342575 -5.081038 2.676291 -1.652396 4.938306 -4.737222 4.319324 7.474400 4.298999 0.000000 0.000000 -38.554092 11.013753 -63.260659 -0.000000 0.000000 -10.245100 186.739339 248.361797 208.496224 -0.000003 -0.000006 -12.703301 54.956436 4.511125 29.630624 -2.534608 -1.686398 5.195004 18.159275 8.831690 -0.407040 -4.144098 -0.000005 0.000006 55.153457 -23.700034 57.083535 0.000000 0.000009 -10.116503 -61.253819 -23.043288 -69.471678 0.000003 0.000012 -12.937794 125.897776 191.715364 86.270548 2.175590 0.064493 -2.662892 -337.093769 -13.150588 22.449240 -0.000001 -0.000003 -18.585796 134.360271 -236.871316 -141.108293 -0.000001 0.000002 -18.979494 370.450363 -7.701806 -8.199328 -2.092415 -0.058104 -2.581195 -174.632883 -10.487301 -68.062343 0.000003 0.000002 -18.665016 -347.865605 6.225653 17.347250 0.000003 0.000009 -18.566607 517.596762 63.296367 -60.177327
67.203110 50.835102 39.126293 371.190455 -4.845203 -18.307880 -0.153498 1.163101 7.852407 20.427337 13.352075 0.641648 0.000000 0.000000 3.343299 -6.769161 -2.455026 -0.165350 -0.000002 -0.000010 7.785500 -46.879154 1.040841 26.077956 0.000001 0.000000 2.173909 -1.969303 4.318281 -5.056377 2.676291 -1.652403 4.938296 -4.586355 4.221570 7.367337 4.298996 0.000000 -0.000004 -38.588011 11.068369 -63.061982 -0.000010 0.000004 -10.245113 185.732678 248.513701 207.622793 -0.000007 -0.000006 -12.703300 55.216048 4.450476 29.786086 -2.534606 -1.686399 5.194996 18.135493 8.740585 -0.232161 -4.144094 -0.000002 0.000002 55.090045 -23.928424 56.810761 0.000013 0.000020 -10.116503 -61.137269 -22.709846 -69.366759 0.000012 0.000006 -12.937794 126.435940 191.673017 86.297719 2.175593 0.064487 -2.662894 -337.044837 -13.166581 22.447739 0.000002 -0.000008 -18.585800 134.242792 -236.861863 -141.055919 -0.000008 -0.000005 -18.979494 370.455008 -7.709673 -8.222734 -2.092400 -0.058096 -2.581194 -174.786112 -10.259350 -68.075867 -0.000001 -0.000006 -18.665016 -347.692009 6.318749 17.320192 0.000012 0.000006 -18.566608 517.657196 63.371001 -60.088774
